<?xml version="1.0" encoding="UTF-8"?>
<svg width="512px" height="512px" viewBox="0 0 512 512" version="1.1" xmlns="http://www.w3.org/2000/svg" xmlns:xlink="http://www.w3.org/1999/xlink">
    <title>icon</title>
    <g id="icon" stroke="none" stroke-width="1" fill="none" fill-rule="evenodd">
        <rect id="Rectangle" fill="#0099E1" x="0" y="0" width="512" height="512" rx="75"></rect>
        <g id="Group" transform="translate(95.000000, 71.000000)" fill="#FFFFFF" fill-rule="nonzero">
            <g id="check-duotone" transform="translate(1.000000, 0.000000)">
                <path d="M316.30073,50.9023352 L166.055687,201.971336 L120.465169,156.283428 L270.935814,5.26455785 C273.920146,2.25515353 277.978212,0.555075047 282.216563,0.53850048 C286.454915,0.522167012 290.52606,2.19068649 293.533671,5.17682904 L293.621405,5.26455785 L316.30073,28.0803133 C322.566423,34.3976509 322.566423,44.5849976 316.30073,50.9023352 Z" id="Path" opacity="0.4"></path>
                <path d="M165.910112,201.770351 L131.702806,236.102659 C125.484819,242.356874 115.36498,242.396091 109.098528,236.190257 L109.010769,236.102659 L4.70261989,131.385053 C-1.56753996,125.080651 -1.56753996,114.907619 4.70261989,108.603217 L27.3946572,85.8213816 C33.60174,79.5834748 43.6954976,79.5358973 49.9613241,85.7150121 L50.0616204,85.8213816 L165.910112,201.770351 Z" id="Path"></path>
            </g>
            <g id="check-duotone-copy" transform="translate(0.000000, 128.000000)">
                <path d="M317.29666,51.1243291 L166.921486,202.016914 L121.29148,156.382359 L271.892452,5.53984708 C274.879369,2.53395711 278.940949,0.835863963 283.182972,0.819308751 C287.424995,0.802994357 291.499665,2.46956536 294.509881,5.45222072 L294.597692,5.53984708 L317.29666,28.3289586 C323.56778,34.6389189 323.56778,44.8143688 317.29666,51.1243291 Z" id="Path" opacity="0.4"></path>
                <path d="M166.775785,201.816163 L132.538851,236.108378 C126.315478,242.355289 116.186874,242.394461 109.914995,236.195874 L109.827159,236.108378 L5.42866606,131.51306 C-0.84692456,125.216021 -0.84692456,115.054868 5.42866606,108.757829 L28.1403575,86.0025974 C34.3528165,79.7719753 44.4553166,79.7244532 50.72657,85.8963522 L50.8269532,86.0025974 L166.775785,201.816163 Z" id="Path"></path>
            </g>
        </g>
    </g>
</svg>